<svg xmlns="http://www.w3.org/2000/svg" xmlns:xlink="http://www.w3.org/1999/xlink">
  <symbol id="diamond" viewBox="0 0 512.007 512.007">
        <g>
	    <g>
		    <path d="M510.025,139.609l-85.333-102.4c-1.621-1.937-4.019-3.063-6.554-3.063H93.871c-2.534,0-4.932,1.118-6.554,3.063
			l-85.333,102.4c-2.125,2.543-2.586,6.084-1.178,9.079c1.408,2.995,4.42,4.915,7.731,4.915h494.933c3.311,0,6.323-1.92,7.731-4.915
			C512.602,145.702,512.15,142.16,510.025,139.609z M26.757,136.537l71.108-85.333h316.271l71.108,85.333H26.757z"/>
	    </g>
      </g>
      <g>
	    <g>
		    <path d="M263.898,39.402c-1.323-3.191-4.437-5.265-7.885-5.265H93.88c-3.055,0-5.871,1.63-7.398,4.284s-1.519,5.905,0.026,8.55
			l59.733,102.4c1.331,2.278,3.644,3.823,6.272,4.164c0.367,0.043,0.734,0.068,1.092,0.068c2.253,0,4.429-0.887,6.042-2.5
			l102.4-102.4C264.487,46.263,265.221,42.593,263.898,39.402z M155.397,131.212l-46.669-80.008h126.677L155.397,131.212z"/>
	    </g>
    </g>
    <g>
	    <g>
		    <path d="M511.109,141.281c-1.434-2.91-4.403-4.753-7.646-4.753H8.53c-3.243,0-6.204,1.843-7.646,4.753
			c-1.434,2.91-1.101,6.383,0.87,8.96l247.467,324.267c1.613,2.116,4.122,3.362,6.784,3.362s5.171-1.246,6.767-3.362
			l247.467-324.267C512.21,147.664,512.542,144.191,511.109,141.281z M256.005,455.274L25.784,153.604h460.442L256.005,455.274z"/>
	    </g>
    </g>
    <g>
	    <g>
		    <path d="M264.146,466.76l-102.4-324.267c-1.126-3.55-4.412-5.965-8.141-5.965H8.538c-3.243,0-6.204,1.843-7.646,4.753
			c-1.434,2.91-1.101,6.383,0.87,8.96l247.467,324.267c1.655,2.176,4.19,3.362,6.784,3.362c1.331,0,2.679-0.307,3.925-0.973
			C263.617,474.995,265.391,470.711,264.146,466.76z M25.784,153.604H147.35l85.811,271.736L25.784,153.604z"/>
	    </g>
    </g>
    <g>
	    <g>
		    <path d="M425.537,38.421c-1.519-2.654-4.343-4.284-7.398-4.284H256.005c-3.447,0-6.562,2.074-7.885,5.265
			c-1.323,3.191-0.589,6.861,1.852,9.301l102.4,102.4c1.604,1.613,3.78,2.5,6.033,2.5c0.367,0,0.734-0.026,1.101-0.068
			c2.62-0.341,4.941-1.877,6.272-4.164l59.733-102.4C427.047,44.326,427.056,41.075,425.537,38.421z M356.613,131.212
			l-80.009-80.008h126.677L356.613,131.212z"/>
	    </g>
    </g>
    <g>
	    <g>
		    <path d="M511.126,141.299c-1.434-2.91-4.403-4.753-7.646-4.753H358.413c-3.729,0-7.023,2.415-8.141,5.965l-102.4,324.267
			c-1.246,3.942,0.529,8.226,4.207,10.138c1.246,0.648,2.594,0.956,3.925,0.956c2.586,0,5.12-1.186,6.784-3.345l247.467-324.267
			C512.227,147.681,512.559,144.208,511.126,141.299z M278.849,425.339l85.811-271.736h121.566L278.849,425.339z"/>
	    </g>
    </g>
  </symbol>
  <symbol id="list" viewBox="0 0 512 512">
    <path d="m446.953 120v190c-1.056 26.536-38.953 26.516-40 0v-190c0-44.112-35.888-80-80-80h-184c-44.112 0-80 35.888-80 80v272c0 44.112 35.888 80 80 80h60c26.536 1.056 26.516 38.953 0 40h-60c-66.168 0-120-53.832-120-120v-272c0-66.168 53.832-120 120-120h184c66.168 0 120 53.832 120 120zm-104-22c-1.056-26.533-38.951-26.519-40 0 0 16.542-13.458 30-30 30h-76c-16.542 0-30-13.458-30-30 0-11.046-8.954-20-20-20s-20 8.954-20 20c0 38.598 31.402 70 70 70h76c38.598 0 70-31.402 70-70zm-8 217h-111c-26.536 1.056-26.516 38.953 0 40h111c26.536-1.056 26.516-38.953 0-40zm0-80h-111c-26.536 1.056-26.516 38.953 0 40h111c26.536-1.056 26.516-38.953 0-40zm148.211 153.072-104.54 105.568c-23.085 24.319-64.74 24.316-87.825-.005l-46.09-46.763c-7.754-7.866-7.662-20.529.205-28.283 7.866-7.755 20.528-7.662 28.283.205l46.062 46.734c8.149 8.575 22.781 8.571 30.937-.028l104.546-105.573c19.421-18.11 46.336 8.566 28.422 28.145zm-343.211-80.072c-13.807 0-25 11.193-25 25 1.317 33.162 48.688 33.153 50 0 0-13.807-11.193-25-25-25zm0-80c-13.807 0-25 11.193-25 25 1.317 33.162 48.688 33.153 50 0 0-13.807-11.193-25-25-25z"/>
  </symbol>
  <symbol id="stars" viewBox="0 -10 511.98685 511">
    <path d="m114.59375 491.140625c-5.609375 0-11.179688-1.75-15.933594-5.1875-8.855468-6.417969-12.992187-17.449219-10.582031-28.09375l32.9375-145.089844-111.703125-97.960937c-8.210938-7.167969-11.347656-18.519532-7.976562-28.90625 3.371093-10.367188 12.542968-17.707032 23.402343-18.710938l147.796875-13.417968 58.433594-136.746094c4.308594-10.046875 14.121094-16.535156 25.023438-16.535156 10.902343 0 20.714843 6.488281 25.023437 16.511718l58.433594 136.769532 147.773437 13.417968c10.882813.980469 20.054688 8.34375 23.425782 18.710938 3.371093 10.367187.253906 21.738281-7.957032 28.90625l-111.703125 97.941406 32.9375 145.085938c2.414063 10.667968-1.726562 21.699218-10.578125 28.097656-8.832031 6.398437-20.609375 6.890625-29.910156 1.300781l-127.445312-76.160156-127.445313 76.203125c-4.308594 2.558594-9.109375 3.863281-13.953125 3.863281zm141.398438-112.875c4.84375 0 9.640624 1.300781 13.953124 3.859375l120.277344 71.9375-31.085937-136.941406c-2.21875-9.746094 1.089843-19.921875 8.621093-26.515625l105.472657-92.5-139.542969-12.671875c-10.046875-.917969-18.6875-7.234375-22.613281-16.492188l-55.082031-129.046875-55.148438 129.066407c-3.882812 9.195312-12.523438 15.511718-22.546875 16.429687l-139.5625 12.671875 105.46875 92.5c7.554687 6.613281 10.859375 16.769531 8.621094 26.539062l-31.0625 136.9375 120.277343-71.914062c4.308594-2.558594 9.109376-3.859375 13.953126-3.859375zm-84.585938-221.847656s0 .023437-.023438.042969zm169.128906-.0625.023438.042969c0-.023438 0-.023438-.023438-.042969zm0 0"/>
  </symbol>
  <symbol id="rocket" viewBox="0 0 31.076 31.076">
    <g>
      <path d="M21.549,20.227v-3.947c0-8.806-3.725-14.125-5.283-15.964C16.098,0.116,15.851,0.002,15.591,0
        c-0.261-0.001-0.508,0.112-0.679,0.31c-1.584,1.835-5.384,7.156-5.384,15.97v3.948l-0.729,0.491
        c-1.405,0.948-2.248,2.533-2.248,4.229v4.711c0,0.279,0.154,0.537,0.4,0.67c0.247,0.132,0.546,0.117,0.778-0.039l2.368-1.577
        c0.665-0.442,1.445-0.679,2.244-0.679h1.741v2.283c0,0.42,0.34,0.76,0.759,0.76h1.394c0.419,0,0.759-0.34,0.759-0.76v-2.283h1.74
        c0.799,0,1.58,0.235,2.246,0.68l2.366,1.576c0.232,0.156,0.531,0.171,0.778,0.039c0.246-0.133,0.4-0.391,0.4-0.67v-4.711
        c0-1.694-0.844-3.279-2.248-4.229L21.549,20.227z M15.539,14.043c-1.446,0-2.62-1.173-2.62-2.619c0-1.447,1.174-2.619,2.62-2.619
        c1.445,0,2.619,1.172,2.619,2.619C18.158,12.87,16.984,14.043,15.539,14.043z"/>
    </g>
  </symbol>
  <symbol id="phone" viewBox="0 0 26.802 26.802">
    <g>
      <path d="M19.039,0H7.761C6.683,0,5.812,0.875,5.812,1.952v22.899c0,1.076,0.871,1.951,1.949,1.951h11.277
        c1.078,0,1.951-0.875,1.951-1.951V1.952C20.99,0.875,20.118,0,19.039,0z M10.617,1.186h5.568c0.141,0,0.254,0.21,0.254,0.471
        c0,0.26-0.113,0.471-0.254,0.471h-5.568c-0.141,0-0.253-0.211-0.253-0.471C10.364,1.396,10.476,1.186,10.617,1.186z
        M13.401,24.875c-0.687,0-1.246-0.558-1.246-1.246s0.56-1.244,1.246-1.244s1.245,0.557,1.245,1.244
        C14.646,24.317,14.086,24.875,13.401,24.875z M19.528,20.607H7.274V3.294h12.254V20.607z"/>
    </g>
  </symbol>
  <symbol id="heart" viewBox="0 0 94.006 94.005">
    <g>
      <path d="M94.006,35.071c0,2.673-0.438,5.31-1.288,7.845c-3.993,18.067-38.521,39.923-39.99,40.853
        c-0.459,0.285-0.974,0.434-1.499,0.434c-0.524,0-1.046-0.132-1.505-0.434c-0.395-0.257-10.123-6.396-19.986-14.834
        c-1.181-1.018-1.305-2.774-0.314-3.95c1.015-1.166,2.769-1.308,3.952-0.317c7.352,6.281,14.782,11.359,17.867,13.405
        c10.37-6.761,33.263-23.962,36.069-36.648c0.733-2.241,1.064-4.279,1.064-6.348c0-7.202-3.921-13.841-10.235-17.319
        c-8.063-4.474-18.856-2.411-24.755,4.7c-1.06,1.284-3.24,1.284-4.32,0c-5.917-7.116-16.702-9.163-24.754-4.708
        c-6.334,3.486-10.255,10.121-10.255,17.316c0,2.055,0.348,4.102,0.996,6.079c0.416,1.85,1.212,3.659,2.225,5.536h16.356
        l5.617-12.909c0.481-1.105,1.63-1.8,2.812-1.676c1.204,0.105,2.208,0.971,2.476,2.147l4.135,17.482l5.349-8.771
        c0.504-0.833,1.411-1.342,2.391-1.342h10.151c1.545,0,2.801,1.251,2.801,2.803c0,1.544-1.256,2.802-2.801,2.802h-8.578
        l-8.058,13.236c-0.514,0.844-1.42,1.348-2.383,1.348c-0.153,0-0.301-0.012-0.438-0.033c-1.129-0.181-2.018-1.013-2.289-2.118
        L41.04,43.726l-2.986,6.873c-0.446,1.033-1.457,1.685-2.572,1.685H2.802C1.268,52.283,0,51.029,0,49.482
        c0-1.544,1.268-2.802,2.802-2.802h8.217c-0.583-1.391-1.054-2.741-1.346-4.047c-0.782-2.268-1.205-4.909-1.205-7.568
        c0-9.242,5.026-17.751,13.147-22.225c9.406-5.203,21.853-3.567,29.626,3.737c7.752-7.305,20.19-8.94,29.612-3.737
        C88.964,17.308,94.006,25.823,94.006,35.071z"/>
    </g>
  </symbol>
  <symbol id="arrow" viewBox="0 0 64 64">
    <path d="m37.379 12.552c-.799-.761-2.066-.731-2.827.069-.762.8-.73 2.066.069 2.828l15.342 14.551h-39.963c-1.104 0-2 .896-2 2s.896 2 2 2h39.899l-15.278 14.552c-.8.762-.831 2.028-.069 2.828.393.412.92.62 1.448.62.496 0 .992-.183 1.379-.552l17.449-16.62c.756-.755 1.172-1.759 1.172-2.828s-.416-2.073-1.207-2.862z"/>
  </symbol>
  <symbol id="mopc" viewBox="0 0 473.981 473.981">
          <g>
        <path  d="M33.245,291.143V53.277c0-1.972,1.607-3.579,3.572-3.579h350.514c1.965,0,3.57,1.607,3.57,3.579
          V234.11h33.245V53.277c0-20.307-16.508-36.824-36.815-36.824H36.817C16.51,16.452,0,32.97,0,53.277v237.866
          c0,20.308,16.51,36.825,36.817,36.825h117.491v47.724h-18.521c-9.187,0-16.622,7.442-16.622,16.623
          c0,9.179,7.436,16.622,16.622,16.622h152.571c9.188,0,16.623-7.443,16.623-16.622c0-9.181-7.436-16.623-16.623-16.623h-18.537
          v-47.724h56.36v-33.245H36.817C34.853,294.723,33.245,293.115,33.245,291.143z"/>
        <path  d="M452.765,254.888h-84.588c-11.703,0-21.217,9.52-21.217,21.223v160.193
          c0,11.706,9.514,21.225,21.217,21.225h84.588c11.704,0,21.217-9.52,21.217-21.225V276.111
          C473.981,264.407,464.469,254.888,452.765,254.888z M371.894,279.821h77.154v139.091h-77.154V279.821z M410.463,446.239
          c-1.558,0-2.954-0.487-4.237-1.168c-2.905-1.551-4.967-4.522-4.967-8.052c0-5.088,4.122-9.212,9.204-9.212
          c5.096,0,9.22,4.124,9.22,9.212c0,3.53-2.046,6.501-4.967,8.052C413.416,445.752,412.021,446.239,410.463,446.239z"/>
      </g>
  </symbol>
  <symbol id="glass" viewBox="0 0 480.182 480.182">
              <g>
            <g>
              <path d="M200.182,32.106c-92.784,0-168,75.216-168,168s75.216,168,168,168s168-75.216,168-168
                C368.081,107.364,292.924,32.207,200.182,32.106z M200.182,48.106c49.416,0.039,95.723,24.123,124.128,64.56l-20,20
                c-4.867-2.945-10.439-4.521-16.128-4.56c-17.673,0-32,14.327-32,32c0.028,5.695,1.595,11.276,4.536,16.152l-52.384,52.384
                c-9.919-6.048-22.385-6.048-32.304,0l-36.384-36.384c2.941-4.876,4.508-10.457,4.536-16.152
                c0.022-17.638-14.258-31.954-31.896-31.976c-14.587-0.018-27.332,9.849-30.968,23.976h-29.68
                C66.785,98.159,128.614,48.211,200.182,48.106z M304.182,160.106c0,8.837-7.163,16-16,16s-16-7.163-16-16s7.163-16,16-16
                S304.182,151.269,304.182,160.106z M208.182,256.106c0,8.837-7.163,16-16,16s-16-7.163-16-16c0-8.837,7.163-16,16-16
                S208.182,247.269,208.182,256.106z M128.182,176.106c0,8.837-7.163,16-16,16s-16-7.163-16-16s7.163-16,16-16
                S128.182,167.269,128.182,176.106z M274.036,333.012c-22.592,12.544-48.012,19.116-73.854,19.093
                c-83.89,0.057-151.943-67.902-152-151.792c-0.004-5.414,0.282-10.825,0.856-16.208h32.28c3.637,14.085,16.317,23.945,30.864,24
                c5.695-0.028,11.276-1.595,16.152-4.536l36.384,36.384c-2.941,4.876-4.508,10.457-4.536,16.152c0,17.673,14.327,32,32,32
                s32-14.327,32-32c-0.028-5.695-1.595-11.276-4.536-16.152l52.384-52.384c4.876,2.941,10.457,4.508,16.152,4.536
                c17.673,0,32-14.327,32-32c-0.028-5.695-1.595-11.276-4.536-16.152l17.44-17.432C373.801,199.849,347.363,292.298,274.036,333.012
                z"/>
            </g>
          </g>
          <g>
            <g>
              <path d="M400.182,80.106c14.547-0.055,27.227-9.914,30.864-24h49.136v-16h-49.136c-3.637-14.086-16.317-23.945-30.864-24
                c-17.673,0-32,14.327-32,32c0.028,5.695,1.595,11.276,4.536,16.152l-14.056,14.056C291.407-9.307,165.855-25.817,78.234,41.438
                S-25.897,234.246,41.358,321.867c63.484,82.707,179.855,102.77,267.368,46.095l24.144,24.144l11.312,11.312l64.4,64.4
                c16.379,16.379,42.933,16.379,59.312,0c16.379-16.379,16.379-42.933,0-59.312l-64.4-64.4l-11.312-11.312l-24.144-24.144
                c42.859-66.016,42.859-151.071,0-217.088l16-16C388.911,78.504,394.49,80.074,400.182,80.106z M400.182,32.106
                c8.837,0,16,7.163,16,16s-7.163,16-16,16s-16-7.163-16-16S391.346,32.106,400.182,32.106z M456.582,419.818
                c10.246,10.016,10.433,26.442,0.417,36.688c-10.016,10.246-26.442,10.433-36.688,0.417c-0.141-0.137-0.279-0.276-0.417-0.417
                l-64.4-64.4l36.688-36.688L456.582,419.818z M380.87,344.106l-36.688,36.688l-22.144-22.144c1.128-0.864,2.184-1.816,3.296-2.704
                s2.4-1.952,3.592-2.952c1.752-1.472,3.48-2.96,5.176-4.488c0.872-0.8,1.704-1.6,2.56-2.4c3.28-3.072,6.456-6.248,9.528-9.528
                c0.8-0.856,1.6-1.688,2.4-2.56c1.528-1.696,3.016-3.424,4.488-5.176c1.003-1.184,1.987-2.381,2.952-3.592
                c0.88-1.104,1.832-2.16,2.696-3.288L380.87,344.106z M349.846,306.946c-2.52,3.52-5.12,6.968-7.864,10.288
                c-0.8,0.968-1.656,1.904-2.48,2.856c-2.448,2.848-4.976,5.611-7.584,8.288c-1.136,1.173-2.291,2.328-3.464,3.464
                c-2.667,2.608-5.429,5.136-8.288,7.584c-0.952,0.8-1.888,1.672-2.856,2.48c-3.32,2.744-6.768,5.344-10.288,7.864
                c-82.816,59.165-197.915,39.992-257.08-42.824S9.95,109.031,92.766,49.866S290.681,9.873,349.846,92.69
                C395.627,156.772,395.627,242.864,349.846,306.946z"/>
            </g>
          </g>
  </symbol>
</svg>