<svg xmlns="http://www.w3.org/2000/svg" xmlns:xlink="http://www.w3.org/1999/xlink">
  <symbol id="rocket" viewBox="0 0 31.076 31.076">
    <g>
      <path d="M21.549,20.227v-3.947c0-8.806-3.725-14.125-5.283-15.964C16.098,0.116,15.851,0.002,15.591,0
        c-0.261-0.001-0.508,0.112-0.679,0.31c-1.584,1.835-5.384,7.156-5.384,15.97v3.948l-0.729,0.491
        c-1.405,0.948-2.248,2.533-2.248,4.229v4.711c0,0.279,0.154,0.537,0.4,0.67c0.247,0.132,0.546,0.117,0.778-0.039l2.368-1.577
        c0.665-0.442,1.445-0.679,2.244-0.679h1.741v2.283c0,0.42,0.34,0.76,0.759,0.76h1.394c0.419,0,0.759-0.34,0.759-0.76v-2.283h1.74
        c0.799,0,1.58,0.235,2.246,0.68l2.366,1.576c0.232,0.156,0.531,0.171,0.778,0.039c0.246-0.133,0.4-0.391,0.4-0.67v-4.711
        c0-1.694-0.844-3.279-2.248-4.229L21.549,20.227z M15.539,14.043c-1.446,0-2.62-1.173-2.62-2.619c0-1.447,1.174-2.619,2.62-2.619
        c1.445,0,2.619,1.172,2.619,2.619C18.158,12.87,16.984,14.043,15.539,14.043z"/>
    </g>
  </symbol>
  <symbol id="phone" viewBox="0 0 26.802 26.802">
    <g>
      <path d="M19.039,0H7.761C6.683,0,5.812,0.875,5.812,1.952v22.899c0,1.076,0.871,1.951,1.949,1.951h11.277
        c1.078,0,1.951-0.875,1.951-1.951V1.952C20.99,0.875,20.118,0,19.039,0z M10.617,1.186h5.568c0.141,0,0.254,0.21,0.254,0.471
        c0,0.26-0.113,0.471-0.254,0.471h-5.568c-0.141,0-0.253-0.211-0.253-0.471C10.364,1.396,10.476,1.186,10.617,1.186z
        M13.401,24.875c-0.687,0-1.246-0.558-1.246-1.246s0.56-1.244,1.246-1.244s1.245,0.557,1.245,1.244
        C14.646,24.317,14.086,24.875,13.401,24.875z M19.528,20.607H7.274V3.294h12.254V20.607z"/>
    </g>
  </symbol>
  <symbol id="heart" viewBox="0 0 94.006 94.005">
    <g>
      <path d="M94.006,35.071c0,2.673-0.438,5.31-1.288,7.845c-3.993,18.067-38.521,39.923-39.99,40.853
        c-0.459,0.285-0.974,0.434-1.499,0.434c-0.524,0-1.046-0.132-1.505-0.434c-0.395-0.257-10.123-6.396-19.986-14.834
        c-1.181-1.018-1.305-2.774-0.314-3.95c1.015-1.166,2.769-1.308,3.952-0.317c7.352,6.281,14.782,11.359,17.867,13.405
        c10.37-6.761,33.263-23.962,36.069-36.648c0.733-2.241,1.064-4.279,1.064-6.348c0-7.202-3.921-13.841-10.235-17.319
        c-8.063-4.474-18.856-2.411-24.755,4.7c-1.06,1.284-3.24,1.284-4.32,0c-5.917-7.116-16.702-9.163-24.754-4.708
        c-6.334,3.486-10.255,10.121-10.255,17.316c0,2.055,0.348,4.102,0.996,6.079c0.416,1.85,1.212,3.659,2.225,5.536h16.356
        l5.617-12.909c0.481-1.105,1.63-1.8,2.812-1.676c1.204,0.105,2.208,0.971,2.476,2.147l4.135,17.482l5.349-8.771
        c0.504-0.833,1.411-1.342,2.391-1.342h10.151c1.545,0,2.801,1.251,2.801,2.803c0,1.544-1.256,2.802-2.801,2.802h-8.578
        l-8.058,13.236c-0.514,0.844-1.42,1.348-2.383,1.348c-0.153,0-0.301-0.012-0.438-0.033c-1.129-0.181-2.018-1.013-2.289-2.118
        L41.04,43.726l-2.986,6.873c-0.446,1.033-1.457,1.685-2.572,1.685H2.802C1.268,52.283,0,51.029,0,49.482
        c0-1.544,1.268-2.802,2.802-2.802h8.217c-0.583-1.391-1.054-2.741-1.346-4.047c-0.782-2.268-1.205-4.909-1.205-7.568
        c0-9.242,5.026-17.751,13.147-22.225c9.406-5.203,21.853-3.567,29.626,3.737c7.752-7.305,20.19-8.94,29.612-3.737
        C88.964,17.308,94.006,25.823,94.006,35.071z"/>
    </g>
  </symbol>
  <symbol id="arrow" viewBox="0 0 64 64">
    <path d="m37.379 12.552c-.799-.761-2.066-.731-2.827.069-.762.8-.73 2.066.069 2.828l15.342 14.551h-39.963c-1.104 0-2 .896-2 2s.896 2 2 2h39.899l-15.278 14.552c-.8.762-.831 2.028-.069 2.828.393.412.92.62 1.448.62.496 0 .992-.183 1.379-.552l17.449-16.62c.756-.755 1.172-1.759 1.172-2.828s-.416-2.073-1.207-2.862z"/>
  </symbol>
</svg>